<?xml version="1.0" encoding="utf-8"?>
<!-- Generator: Adobe Illustrator 18.1.1, SVG Export Plug-In . SVG Version: 6.00 Build 0)  -->
<svg version="1.1" id="Ñëîé_1" xmlns="http://www.w3.org/2000/svg" xmlns:xlink="http://www.w3.org/1999/xlink" x="0px" y="0px"
	 viewBox="0 0 670 812.1" enable-background="new 0 0 670 812.1" xml:space="preserve">
<path fill="#FFA897" d="M170.2,616.5l-4.7-23.5l-8.3-10.1c-1.9-2.2-5.4-2.2-7.1,0.2l0,0c-0.3,0.3-0.5,0.7-0.6,1.2
	c-0.8-0.7-2-1.2-3.2-1c-5,0.7-16.1,10.5-13.1,22.3c0,0-13.9-1.6-17.7,2c-3.8,3.6-1.6,6.9,1,6.5c2.7-0.4,14.8,0.3,14.8,0.3l-0.1,1.4
	c0,0-12.1-0.8-14.6,0.5c-2.5,1.4-3.7,7.4,3.4,6.7s24.4,1.2,24.4,1.2l14.4,5.6l5-8.6L170.2,616.5z M145.1,604.2
	c-2.7-1.6-3.9-11.6,2.4-12.3c1.8-0.2,2.8-1,3.3-2l5,8.8l-0.5,5.9l-0.1-0.1C155.3,604.5,147.9,605.9,145.1,604.2z"/>
<path fill="#FFA897" d="M556.2,614.1c2.7,0.4,4.8-2.9,1-6.5c-3.8-3.6-17.7-2-17.7-2c2.9-11.8-8.1-21.7-13.1-22.3
	c-1.3-0.1-2.4,0.3-3.2,1c-0.1-0.4-0.3-0.8-0.6-1.2l0,0c-1.8-2.4-5.3-2.4-7.1-0.2l-8.3,10.1l-4.7,23.5l6.3,4.8l5,8.6l14.4-5.6
	c0,0,17.3-2,24.4-1.2s5.9-5.3,3.4-6.7s-14.6-0.5-14.6-0.5l-0.1-1.4C541.4,614.4,553.5,613.7,556.2,614.1z M527.6,604.2
	c-2.7,1.6-10.1,0.3-10.1,0.3l-0.1,0.1l-0.5-5.9l5-8.8c0.5,1,1.6,1.8,3.3,2C531.4,592.6,530.3,602.5,527.6,604.2z"/>
<path fill="#603141" d="M262.9,456.5c0,0-22.8-72.1,20.3-65.1c43.2,6.9,66.1-5.6,87.5-9.4c33.1-5.9,51.6,10.2,36.6,77L262.9,456.5z"
	/>
<path fill="#F59784" d="M410.5,471.4l-148.2,0.4c-4.7,0-8.4-3.7-8.5-8.4l0,0c0-4.7,3.7-8.4,8.4-8.5l148.2-0.4c4.7,0,8.4,3.7,8.5,8.4
	l0,0C418.9,467.6,415.1,471.4,410.5,471.4z"/>
<path fill="#FFA897" d="M367.1,703.1l-60.5,0.4c-15.6,0.1-26.5-12.2-27.3-27.9L265,448.2c-1.5-25.4,18.4-46.9,43.5-47.1l52.9-0.3
	c25.2-0.1,45.3,21.1,44.1,46.5l-10.8,227.5C394.1,690.5,382.8,703,367.1,703.1z"/>
<path fill="#433849" d="M277.1,652.7l0.3,22.8c0.8,15.8,13.7,28.1,29.3,27.9l60.3-0.3c15.6-0.1,28.3-12.6,29-28.4l0.7-22H277.1z"/>
<path fill="#E9E6ED" d="M503.3,604.5c-12.5,10.1-32.4,18.7-50.5,12.3c-22.6-8-39.9-37.6-50-85.5l-0.7,0.1l0.1-4.1L338,545.9
	l-68.7-17.7l0.2,4.4c-10.1,47.2-27.3,76.3-49.7,84.2c-18.2,6.4-37.9-2.2-50.5-12.3L150,628.1c7.2,5.8,29,21.4,56.2,21.4
	c7.5,0,15.4-1.2,23.5-4.1c17.3-6.1,31.8-18.7,43.6-37.5l3.4,63.2h119.3l2.6-63.2c11.8,18.9,26.4,31.5,43.7,37.6
	c8.2,2.9,16,4.1,23.5,4.1c27.3,0,49-15.6,56.2-21.4L503.3,604.5z"/>
<polygon fill="#41AFE0" points="342.2,561.7 351,554.5 338.1,546 323.4,553.6 334.2,561.7 325.1,634 338.4,647.1 351.8,635 "/>
<path fill="#603141" d="M301.3,421.4c-42.9-8.2-37.8-58.3,9.7-63c8-0.7-8.7,10.5-5.2,11.8c9-7.4,27.7-16.5,50.3-10.5
	c5,1.3-15.2,10-9.7,8.9c23.7-4.9,35.4,2.7,34.1,5.4c-1.3,2.7-18.8,5.4-2.1,24.9C387.7,410,357.1,432,301.3,421.4z"/>
<path fill="#603141" d="M367.6,439.5c9.6-0.7,15.2,6.5,16.7,10.3c0.4,1-0.1,2.1-1,2.4c-1,0.4-2.1-0.1-2.4-1c-0.1-0.1-3.7-8.6-13-8
	c-0.5,0-0.9-0.1-1.2-0.3c-0.5-0.3-0.7-0.8-0.8-1.4C365.8,440.5,366.5,439.5,367.6,439.5z"/>
<circle opacity="0.2" fill="#F7636C" enable-background="new    " cx="380.9" cy="489.9" r="9.3"/>
<path fill="#4A3A4F" d="M422.6,678.3c-1.7-4.6-6.8-6.9-11.4-5.2l-74.9,20.2L261.4,673c-4.6-1.7-9.7,0.7-11.4,5.2
	c-1.7,4.6,0.7,9.7,5.2,11.4l50.7,13.7l5.9,14.8l24.5-6.6l24.5,6.6l5.9-14.8l50.7-13.7C422,687.9,424.3,682.8,422.6,678.3z"/>
<circle fill="#603141" cx="369.9" cy="455.7" r="6.3"/>
<g>
	<path fill="#603141" d="M308.9,439.5c-9.6-0.7-15.2,6.5-16.7,10.3c-0.4,1,0.1,2.1,1,2.4c1,0.4,2.1-0.1,2.4-1c0.1-0.1,3.7-8.6,13-8
		c0.5,0,0.9-0.1,1.2-0.3c0.5-0.3,0.7-0.8,0.8-1.4C310.7,440.5,310,439.5,308.9,439.5z"/>
	<circle opacity="0.2" fill="#F7636C" enable-background="new    " cx="295.6" cy="489.9" r="9.3"/>
	<circle fill="#603141" cx="306.6" cy="455.7" r="6.3"/>
</g>
<path fill="#F7636C" d="M360.1,499.9h-43.6c-0.5,0-1-0.5-1-1v-1.7c0-0.5,0.5-1,1-1h43.6c0.5,0,1,0.5,1,1v1.7
	C361.2,499.4,360.7,499.9,360.1,499.9z"/>
<polygon fill="#FBF7FF" points="269.4,528.2 311.3,561 338.1,546 360.9,561 402.3,527.3 338.1,546 "/>
<polygon fill="#603141" points="289.6,698.3 308.1,700.9 314.4,716.8 301.3,724.4 "/>
<polygon fill="#603141" points="383.1,698.3 364.6,700.9 358.2,716.8 371.4,724.4 "/>
</svg>
