<?xml version="1.0" encoding="utf-8"?>
<!-- Generator: Adobe Illustrator 18.1.1, SVG Export Plug-In . SVG Version: 6.00 Build 0)  -->
<svg version="1.1" id="Слой_1" xmlns="http://www.w3.org/2000/svg" xmlns:xlink="http://www.w3.org/1999/xlink" x="0px" y="0px"
	 viewBox="0 0 283.5 283.5" enable-background="new 0 0 283.5 283.5" xml:space="preserve">
<path fill="#FFFFFF" d="M142.7,19C74.9,19,20,73.9,20,141.7s54.9,122.7,122.7,122.7s122.7-54.9,122.7-122.7S210.5,19,142.7,19z"/>
<path fill="#75A9D6" d="M141.7,0C63.5,0,0,63.5,0,141.7s63.5,141.7,141.7,141.7S283.5,220,283.5,141.7S220,0,141.7,0z M118,83.7
	l12.4-12.4c1.2-1.2,3.1-1.2,4.3,0c1.2,1.2,1.2,3.1,0,4.3L122.3,88c-1.2,1.2-3.1,1.2-4.3,0C116.8,86.9,116.8,84.9,118,83.7z
	 M100.5,61.5c0-1.7,1.4-3,3-3s3,1.4,3,3V79c0,1.7-1.4,3-3,3s-3-1.4-3-3V61.5z M59.5,102.5c0-1.7,1.4-3,3-3h17.6c1.7,0,3,1.4,3,3
	s-1.4,3-3,3H62.5C60.8,105.5,59.5,104.2,59.5,102.5z M89.1,121.2l-12.4,12.4c-1.2,1.2-3.1,1.2-4.3,0c-1.2-1.2-1.2-3.1,0-4.3
	l12.4-12.4c1.2-1.2,3.1-1.2,4.3,0h0C90.3,118.1,90.3,120,89.1,121.2z M89.1,88c-1.2,1.2-3.1,1.2-4.3,0L72.4,75.6
	c-1.2-1.2-1.2-3.1,0-4.3c1.2-1.2,3.1-1.2,4.3,0l12.4,12.4C90.3,84.9,90.3,86.9,89.1,88z M224.9,206L207,223.8c-1.1,1.1-2.9,1.1-4,0
	l-45-44.9l-16.3,34.8c-0.5,1-1.5,1.6-2.6,1.6c-0.1,0-0.1,0-0.2,0c-1.2-0.1-2.2-0.8-2.6-1.9L97.7,100.2c-0.3-1-0.1-2.2,0.7-2.9
	c0.7-0.7,1.9-1,2.9-0.7l113.4,38.6c1.1,0.4,1.8,1.4,1.9,2.5c0.1,1.2-0.6,2.3-1.6,2.7l-21.3,10c-0.4,0.2-0.8,0.3-1.2,0.3
	c-1.1,0-2.1-0.6-2.6-1.7c-0.3-0.7-0.4-1.4-0.1-2.1c0.3-0.7,0.8-1.3,1.5-1.6l15-7l-101.2-34.5l34.5,101.1l15.1-32.1
	c0.4-0.8,1.2-1.4,2.1-1.6c0.9-0.2,1.9,0.2,2.5,0.8l45.9,45.8l13.8-13.8l-45.9-45.8c-1.1-1.1-1.1-2.9,0-4c1.1-1.1,3-1.1,4,0l48,47.9
	c0.5,0.5,0.8,1.2,0.8,2C225.7,204.7,225.4,205.5,224.9,206z"/>
</svg>
