<?xml version="1.0" encoding="iso-8859-1"?>
<!-- Generator: Adobe Illustrator 18.1.1, SVG Export Plug-In . SVG Version: 6.00 Build 0)  -->
<svg version="1.1" id="&#x421;&#x43B;&#x43E;&#x439;_1"
	 xmlns="http://www.w3.org/2000/svg" xmlns:xlink="http://www.w3.org/1999/xlink" x="0px" y="0px" viewBox="0 0 485.274 65.059"
	 style="enable-background:new 0 0 485.274 65.059;" xml:space="preserve">
<path style="fill:#669F5E;" d="M412.601,17.036l-0.49,1.334c-0.062,0.157-0.163,0.349-0.301,0.582
	c-0.146,0.247-0.325,0.503-0.53,0.761c-0.151,0.188-0.339,0.345-0.58,0.48c-0.2,0.112-0.398,0.166-0.609,0.166
	c-0.295,0-0.979-0.127-2.33-1.027c-0.022-0.015-0.043-0.028-0.064-0.042l-0.125-0.089c-0.503-0.32-0.937-0.58-1.302-0.779
	c-0.415-0.228-0.921-0.43-1.546-0.617c-1.271-0.379-2.675-0.411-3.903,0.069c-0.579,0.228-1.092,0.515-1.525,0.854
	c-0.412,0.323-0.805,0.712-1.171,1.157c-0.35,0.428-0.628,0.813-0.847,1.176c-0.208,0.344-0.402,0.703-0.581,1.077
	c-0.191,0.398-0.308,0.672-0.351,0.802l-0.416,1.234l4.113,1.757l0.518-1.329c0.036-0.098,0.116-0.274,0.289-0.559
	c0.147-0.242,0.326-0.494,0.533-0.747c0.149-0.181,0.349-0.334,0.609-0.47c0.409-0.211,0.816-0.258,1.425-0.047
	c0.302,0.107,0.548,0.215,0.726,0.319c0.231,0.136,0.541,0.329,0.92,0.574c0.574,0.377,1.041,0.664,1.403,0.863
	c0.405,0.225,0.919,0.433,1.57,0.637c1.294,0.402,2.672,0.457,3.906-0.049c0.561-0.231,1.058-0.525,1.478-0.876
	c0.388-0.323,0.764-0.707,1.121-1.144c0.358-0.437,0.635-0.829,0.848-1.199c0.2-0.345,0.389-0.705,0.566-1.08
	c0.177-0.378,0.292-0.635,0.346-0.775c0.058-0.146,0.1-0.26,0.124-0.336l0.311-0.931L412.601,17.036z"/>
<path style="fill:#A7CB6F;" d="M412.601,31.576l-0.49,1.334c-0.062,0.157-0.163,0.349-0.301,0.582
	c-0.146,0.247-0.325,0.503-0.53,0.761c-0.151,0.189-0.339,0.345-0.58,0.48c-0.2,0.112-0.398,0.167-0.609,0.167
	c-0.295,0-0.979-0.128-2.33-1.028c-0.022-0.015-0.043-0.028-0.064-0.042l-0.125-0.088c-0.503-0.321-0.937-0.581-1.302-0.78
	c-0.415-0.228-0.921-0.429-1.546-0.617c-1.271-0.379-2.675-0.41-3.903,0.069c-0.579,0.228-1.092,0.515-1.525,0.854
	c-0.412,0.323-0.805,0.713-1.171,1.157c-0.35,0.428-0.628,0.813-0.847,1.176c-0.208,0.344-0.402,0.703-0.581,1.077
	c-0.191,0.398-0.308,0.672-0.351,0.802l-0.416,1.234l4.113,1.757l0.518-1.328c0.036-0.099,0.116-0.275,0.289-0.56
	c0.147-0.242,0.326-0.494,0.533-0.747c0.149-0.181,0.349-0.334,0.609-0.47c0.409-0.211,0.816-0.258,1.425-0.046
	c0.302,0.106,0.548,0.214,0.726,0.318c0.231,0.136,0.541,0.329,0.92,0.574c0.574,0.378,1.041,0.664,1.403,0.864
	c0.405,0.224,0.919,0.433,1.57,0.637c1.294,0.402,2.672,0.456,3.906-0.049c0.561-0.231,1.058-0.526,1.478-0.877
	c0.388-0.323,0.764-0.707,1.121-1.143c0.358-0.438,0.635-0.83,0.848-1.2c0.2-0.345,0.389-0.705,0.566-1.08
	c0.177-0.377,0.292-0.634,0.346-0.775c0.058-0.146,0.1-0.259,0.124-0.336l0.311-0.931L412.601,31.576z"/>
<path style="fill:#A7CB6F;" d="M412.601,46.117l-0.49,1.334c-0.062,0.157-0.163,0.348-0.301,0.582
	c-0.146,0.247-0.325,0.503-0.53,0.761c-0.151,0.188-0.339,0.345-0.58,0.479c-0.2,0.113-0.398,0.167-0.609,0.167
	c-0.295,0-0.979-0.127-2.33-1.028c-0.022-0.014-0.043-0.027-0.064-0.041l-0.125-0.089c-0.503-0.32-0.937-0.58-1.302-0.779
	c-0.415-0.228-0.921-0.43-1.546-0.617c-1.271-0.379-2.675-0.411-3.903,0.069c-0.579,0.228-1.092,0.515-1.525,0.853
	c-0.412,0.324-0.805,0.713-1.171,1.158c-0.35,0.427-0.628,0.813-0.847,1.175c-0.208,0.345-0.402,0.704-0.581,1.078
	c-0.191,0.398-0.308,0.672-0.351,0.802l-0.416,1.234l4.113,1.757l0.518-1.329c0.036-0.098,0.116-0.274,0.289-0.559
	c0.147-0.242,0.326-0.494,0.533-0.747c0.149-0.181,0.349-0.335,0.609-0.47c0.409-0.211,0.816-0.258,1.425-0.047
	c0.302,0.107,0.548,0.215,0.726,0.319c0.231,0.136,0.541,0.329,0.92,0.574c0.574,0.377,1.041,0.664,1.403,0.863
	c0.405,0.225,0.919,0.433,1.57,0.637c1.294,0.402,2.672,0.457,3.906-0.049c0.561-0.231,1.058-0.525,1.478-0.876
	c0.388-0.323,0.764-0.708,1.121-1.144c0.358-0.437,0.635-0.829,0.848-1.199c0.2-0.345,0.389-0.706,0.566-1.081
	c0.177-0.377,0.292-0.634,0.346-0.775c0.058-0.146,0.1-0.259,0.124-0.335l0.311-0.931L412.601,46.117z"/>
<rect x="0" y="13.813" style="fill:#506AAA;" width="7.224" height="44.273"/>
<rect x="12.845" y="13.813" style="fill:#506AAA;" width="7.224" height="17.758"/>
<polygon style="fill:#73AEE0;" points="12.846,31.571 0,31.571 0,38.99 12.846,38.99 12.846,58.086 20.07,58.086 20.07,38.99 
	20.07,31.571 "/>
<rect x="160.415" y="13.813" style="fill:#73AEE0;" width="7.224" height="44.273"/>
<rect x="173.26" y="13.813" style="fill:#73AEE0;" width="7.224" height="17.758"/>
<polygon style="fill:#A1D1D5;" points="173.261,31.571 160.415,31.571 160.415,38.99 173.261,38.99 173.261,58.086 180.485,58.086 
	180.485,38.99 180.485,31.571 "/>
<path style="fill:#A1D1D5;" d="M83.032,44.128L80.868,58.1h7.224l2.4-12.853C88.006,45.357,85.519,45.335,83.032,44.128"/>
<path style="fill:#73AEE0;" d="M97.109,13.814H88.32l-5.288,30.314c2.487,1.207,4.973,1.229,7.46,1.12l3.933-21.062L97.109,13.814z"
	/>
<polygon style="fill:#A1D1D5;" points="104.893,58.1 97.668,58.1 90.492,22.204 88.313,13.814 97.103,13.814 "/>
<polygon style="fill:#73AEE0;" points="104.892,58.1 102.292,43.325 83.171,43.325 82.012,50.668 96.183,50.668 97.668,58.1 "/>
<path style="fill:#73AEE0;" d="M26.274,44.122l-2.165,13.972h7.225l2.4-12.853C31.247,45.351,28.76,45.329,26.274,44.122"/>
<path style="fill:#506AAA;" d="M40.351,13.807h-8.79l-5.287,30.314c2.486,1.207,4.973,1.229,7.46,1.119l3.932-21.061L40.351,13.807z
	"/>
<polygon style="fill:#73AEE0;" points="48.134,58.093 40.91,58.093 33.734,22.196 31.555,13.807 40.344,13.807 "/>
<polygon style="fill:#506AAA;" points="48.134,58.093 45.534,43.318 26.413,43.318 25.254,50.661 39.424,50.661 40.91,58.093 "/>
<path style="fill:#A1D1D5;" d="M231.283,0l-0.489,1.334c-0.062,0.157-0.163,0.349-0.301,0.582c-0.147,0.247-0.325,0.503-0.53,0.761
	c-0.151,0.189-0.339,0.345-0.58,0.48c-0.2,0.112-0.399,0.166-0.609,0.166c-0.295,0-0.979-0.127-2.331-1.027
	c-0.021-0.015-0.042-0.028-0.064-0.042l-0.125-0.089c-0.502-0.32-0.937-0.58-1.301-0.779c-0.416-0.228-0.921-0.429-1.546-0.617
	c-1.272-0.379-2.675-0.411-3.903,0.069c-0.579,0.228-1.092,0.515-1.526,0.854c-0.412,0.323-0.805,0.713-1.17,1.157
	c-0.351,0.428-0.629,0.813-0.847,1.176c-0.208,0.344-0.403,0.703-0.581,1.077c-0.191,0.398-0.308,0.672-0.352,0.802l-0.415,1.234
	l4.112,1.757l0.519-1.328c0.036-0.099,0.115-0.275,0.289-0.56c0.146-0.242,0.326-0.494,0.533-0.747
	c0.149-0.181,0.348-0.334,0.609-0.47c0.409-0.211,0.816-0.258,1.424-0.047c0.303,0.107,0.548,0.215,0.727,0.319
	c0.23,0.136,0.541,0.329,0.92,0.574c0.574,0.378,1.041,0.664,1.402,0.864c0.406,0.224,0.919,0.432,1.57,0.636
	c1.294,0.403,2.672,0.457,3.907-0.048c0.561-0.231,1.058-0.526,1.477-0.877c0.388-0.323,0.764-0.707,1.121-1.143
	c0.358-0.438,0.635-0.83,0.849-1.2c0.2-0.345,0.389-0.705,0.565-1.08c0.178-0.377,0.292-0.635,0.346-0.775
	c0.059-0.146,0.1-0.259,0.125-0.336l0.311-0.931L231.283,0z"/>
<rect x="67.274" y="13.813" style="fill:#73AEE0;" width="7.224" height="39.197"/>
<rect x="200.407" y="13.806" style="fill:#73AEE0;" width="7.224" height="44.273"/>
<polygon style="fill:#A1D1D5;" points="54.553,50.668 62.125,50.668 67.622,13.814 59.781,13.815 "/>
<polygon style="fill:#A1D1D5;" points="74.498,21.236 58.811,21.236 59.78,13.814 74.498,13.813 "/>
<rect x="121.253" y="14.247" style="fill:#73AEE0;" width="7.224" height="43.841"/>
<polygon style="fill:#A1D1D5;" points="107.633,58.088 114.857,58.088 122.466,13.814 113.76,13.814 "/>
<polygon style="fill:#A1D1D5;" points="186.317,58.087 193.541,58.087 207.629,13.814 200.408,13.806 "/>
<polygon style="fill:#A1D1D5;" points="128.478,21.236 112.791,21.236 113.761,13.814 128.478,13.813 "/>
<rect x="52.174" y="54.377" style="fill:#A1D1D5;" width="7.212" height="10.681"/>
<polygon style="fill:#73AEE0;" points="70.903,50.668 52.174,50.668 52.174,58.087 70.903,58.087 70.903,65.059 78.128,65.059 
	78.128,58.087 78.128,50.668 "/>
<path style="fill:#A1D1D5;" d="M141.932,31.569h-4.705l-0.263,7.422h4.938c2.945,0,5.648,0.853,5.648,5.838
	c0,4.995-2.872,5.812-5.659,5.812c-0.01,0-0.018-0.002-0.027-0.002v7.445c0.016,0,0.03,0.003,0.047,0.003
	c5.613,0,12.672-1.677,12.672-13.686C154.583,32.934,147.545,31.569,141.932,31.569"/>
<rect x="134.709" y="13.814" style="fill:#73AEE0;" width="7.224" height="44.273"/>
<rect x="429.012" y="13.887" style="fill:#A7CB6F;" width="7.224" height="44.273"/>
<rect x="134.709" y="50.668" style="fill:#A1D1D5;" width="7.224" height="7.419"/>
<rect x="186.316" y="13.814" style="fill:#73AEE0;" width="7.224" height="44.273"/>
<rect x="228.448" y="13.806" style="fill:#73AEE0;" width="7.224" height="44.273"/>
<polygon style="fill:#A1D1D5;" points="214.358,58.087 221.582,58.087 235.67,13.814 228.449,13.806 "/>
<rect x="214.357" y="13.814" style="fill:#73AEE0;" width="7.224" height="44.273"/>
<path style="fill:#669F5E;" d="M249.461,31.033c-0.629,0-1.227-0.16-1.769,0l-0.11,7.548c0.817-0.022,1.176-0.102,1.848-0.102
	c2.945,0,5.552,1.375,5.552,6.042c0,4.621-2.776,6.104-5.563,6.104c-0.01,0-0.018-0.002-0.027-0.002l-2.352,7.456h3.665
	c5.253,0,11.406-2.697,11.406-13.26C262.111,32.827,255.074,31.033,249.461,31.033"/>
<path style="fill:#669F5E;" d="M250.111,13.814h-5.424l2.508,7.1c0.478-0.308,1.531,0.356,2.204,0.367
	c2.822,0.049,5.653-0.194,5.653,4.682c0,4.808-3.267,4.74-6.055,4.74c-0.009,0-0.113,0.352-0.122,0.352v6.602
	c0.016,0,0.03,0.003,0.047,0.003c5.613,0,12.672-1.604,12.672-11.579C261.594,15.516,255.407,13.814,250.111,13.814"/>
<rect x="242.302" y="13.829" style="fill:#A7CB6F;" width="7.224" height="44.25"/>
<rect x="242.303" y="50.66" style="fill:#669F5E;" width="7.609" height="7.419"/>
<rect x="242.303" y="13.813" style="fill:#669F5E;" width="7.609" height="7.467"/>
<path style="fill:#669F5E;" d="M276.865,13.421c-5.316,0-9.626,4.31-9.626,9.626v25.936c0,5.317,4.31,9.626,9.626,9.626
	c5.317,0,9.626-4.309,9.626-9.626V23.047C286.491,17.731,282.182,13.421,276.865,13.421 M279.334,49.169
	c0,1.345-1.09,2.436-2.436,2.436c-1.344,0-2.435-1.091-2.435-2.436v-26.28c0-1.345,1.091-2.436,2.435-2.436
	c1.346,0,2.436,1.091,2.436,2.436V49.169z"/>
<path style="fill:#A7CB6F;" d="M276.816,51.614c-1.306-0.045-2.353-1.111-2.353-2.427v-26.28c0-1.346,1.091-2.436,2.436-2.436
	c1.346,0,2.436,1.09,2.436,2.436v6.357h7.157v-6.199c0-5.316-4.31-9.626-9.626-9.626c-5.317,0-9.626,4.31-9.626,9.626v25.937
	c0,5.299,4.283,9.595,9.576,9.623V51.614z"/>
<path style="fill:#A7CB6F;" d="M347.26,13.439c-5.316,0-9.626,4.31-9.626,9.626v25.937c0,5.316,4.31,9.626,9.626,9.626
	c5.317,0,9.626-4.31,9.626-9.626V23.065C356.886,17.749,352.577,13.439,347.26,13.439 M349.73,49.187
	c0,1.345-1.091,2.436-2.437,2.436c-1.344,0-2.435-1.091-2.435-2.436v-26.28c0-1.345,1.091-2.436,2.435-2.436
	c1.346,0,2.437,1.091,2.437,2.436V49.187z"/>
<path style="fill:#669F5E;" d="M347.21,51.614c-1.306-0.045-2.353-1.111-2.353-2.427v-26.28c0-1.346,1.091-2.436,2.436-2.436
	c1.346,0,2.437,1.09,2.437,2.436v6.357h7.156v-6.199c0-5.316-4.31-9.626-9.626-9.626c-5.317,0-9.626,4.31-9.626,9.626v25.937
	c0,5.299,4.283,9.595,9.576,9.623V51.614z"/>
<path style="fill:#A7CB6F;" d="M303.715,42.7v6.486c0,1.346-1.091,2.436-2.436,2.436s-2.435-1.09-2.435-2.436v-26.28
	c0-1.345,1.09-2.435,2.435-2.435s2.436,1.09,2.436,2.435v6.357h7.157v-6.198c0-5.317-4.31-9.626-9.626-9.626
	c-5.316,0-9.626,4.309-9.626,9.626v25.936c0,5.317,4.31,9.626,9.626,9.626c5.316,0,9.626-4.309,9.626-9.626V42.7H303.715z"/>
<rect x="320.354" y="19.264" style="fill:#669F5E;" width="7.224" height="38.823"/>
<rect x="313.522" y="13.814" style="fill:#A7CB6F;" width="20.887" height="7.419"/>
<polygon style="fill:#669F5E;" points="375.165,19.425 370.15,29.532 377.974,58.086 385.197,58.086 "/>
<polygon style="fill:#A7CB6F;" points="362.927,58.087 362.927,44.512 376.786,13.813 383.886,13.813 366.825,50.668 "/>
<rect x="362.926" y="13.813" style="fill:#669F5E;" width="7.224" height="44.274"/>
<rect x="465.442" y="13.813" style="fill:#A7CB6F;" width="7.224" height="44.273"/>
<path style="fill:#669F5E;" d="M436.236,13.887h-7.223v7.421h7.193c2.945,0,5.648,0.853,5.648,5.839c0,4.994-2.872,5.812-5.66,5.812
	c-0.009,0-0.018-0.002-0.026-0.002v7.444c0.015,0,0.03,0.004,0.047,0.004c5.613,0,12.671-1.677,12.671-13.686
	C448.886,15.252,441.849,13.887,436.236,13.887"/>
<path style="fill:#669F5E;" d="M471.973,48.323h-5.839c-7.333,0-13.3-5.967-13.3-13.301V30.16c0-7.333,5.967-13.3,13.3-13.3h5.839
	c7.334,0,13.301,5.967,13.301,13.3v4.862C485.274,42.356,479.307,48.323,471.973,48.323 M466.134,24.034
	c-3.378,0-6.126,2.748-6.126,6.126v4.862c0,3.379,2.748,6.127,6.126,6.127h5.839c3.378,0,6.127-2.748,6.127-6.127V30.16
	c0-3.378-2.749-6.126-6.127-6.126H466.134z"/>
<rect x="465.442" y="13.813" style="fill:#A7CB6F;" width="7.224" height="17.506"/>
</svg>
