<?xml version="1.0" encoding="utf-8"?>
<!-- Generator: Adobe Illustrator 18.1.1, SVG Export Plug-In . SVG Version: 6.00 Build 0)  -->
<svg version="1.1" id="Capa_1" xmlns="http://www.w3.org/2000/svg" xmlns:xlink="http://www.w3.org/1999/xlink" x="0px" y="0px"
	 viewBox="0 1735 1417.3 782" enable-background="new 0 1735 1417.3 782" xml:space="preserve">
<path fill="#8F1A50" d="M832,2030.2c-12.1-87.2-105.4-143.9-105.4-143.9s41.4,54.4,52.4,118.7c9.8,56.7-6.1,96.2-6.1,96.2
	s-18.9-88-88.5-161.9c-55.1-58.5-144.9-96.8-144.9-96.8s-39.6,143.4,71.3,287.7c-20.8-14.7-45.9-28.7-75.1-38.4
	c-55-18.3-124.6-10-124.6-10s46.2,138.4,221.4,180.8c-115.9-81.6-150.1-152.2-150.1-152.2s33.6,2.8,87.1,26.9
	c35.2,15.9,123.1,64.1,207.4,115.4c-32.3-27.6-81.4-71-111.3-106.8c-92.2-110.1-62.2-218.8-62.2-218.8s54.5,28.6,100.1,95.4
	c30.1,44,71.2,157.6,71.2,157.6S846.7,2136.4,832,2030.2"/>
<path fill="#8F1A50" d="M1185.7,2249.2c-77.7-22.6-153.9-28.4-153.9-28.4s44.2-8.6,96.5-13.5c82.5-7.7,155.8,14.3,155.8,14.3
	s-6,26.1-20,53.5c0,0,16.1-7.2,30.5-17.8c37.5-27.5,39.7-58.2,39.7-58.2s-64.3-35.3-163.7-24.5c-2.8,0.3-8.4,1.7-8.4,1.7
	s9.1-4.2,17-10.4c54.4-42.8,66.6-103.4,66.6-103.4s-71.8-9.1-127.2,2.9c-107.7,23.4-144.1,110.6-144.1,110.6s55.4-39.7,93-52.8
	c45.1-15.7,92.5-14.7,92.5-14.7s-41.5,61-122.5,86c-54.8,17-115.8,21.8-115.8,21.8s32.9-134.2,195.4-174.8
	c98.2-24.6,240.6,2.8,240.6,2.8s-169.2-87.1-318.9-16.8c102-109.4,25.1-257.9,25.1-257.9s-101.4,19.8-164.9,76.4
	c-53.9,48-69.9,113.5-60.2,151.2c0,0,23.5-45.6,73.7-94.5c43-41.8,95.1-69.8,95.1-69.8s18.4,106.5-27.9,213.9
	c-73.4,170.4-169,219.9-169,219.9s178-19.9,288.5,7.2c93.1,22.9,138.6,56.1,138.6,56.1s-135.4,93.7-356.4,46.7
	c-147.5-31.3-220.6-89.1-220.6-89.1s110,112.6,286.8,143.9c289.2,51.3,383.9-87.3,383.9-87.3S1275.5,2275.3,1185.7,2249.2"/>
<path fill="#8F1A50" d="M424.6,2450c73.4-1.1,153.7-23.1,153.7-23.1s-44.4,30.4-65.1,39.6c-22.1,9.9-44.2,24.5-93.1,18.8
	c-69-8-112.9-38.1-146.1-60.3C274,2425,316.1,2451.6,424.6,2450"/>
<path fill="#8F1A50" d="M397.4,2380.6c-98.3-33.4-155.1-83.9-193.1-130.1c0,0,95.2,33.4,195.3,51.6c82.4,15,192.8,49.1,249.5,98.4
	c-43.4-78.6-135.9-134.7-256.2-150.1c-259.6-33.2-322.8-97.4-334.7-108.5c-0.2,0-0.1,0,0,0c12.8,38.9,76.4,205.7,239.3,258.8
	c132.4,43.2,294.8,7.2,294.8,7.2S511.7,2419.5,397.4,2380.6"/>
</svg>
