<?xml version="1.0" encoding="utf-8"?>
<!-- Generator: Adobe Illustrator 18.1.1, SVG Export Plug-In . SVG Version: 6.00 Build 0)  -->
<svg version="1.1" id="Слой_1" xmlns="http://www.w3.org/2000/svg" xmlns:xlink="http://www.w3.org/1999/xlink" x="0px" y="0px"
	 viewBox="231.3 132.7 12.2 22.2" enable-background="new 231.3 132.7 12.2 22.2" xml:space="preserve">
<path fill="#669F5E" d="M241,132.7l-0.3,0.8c0,0.1-0.1,0.2-0.2,0.3c-0.1,0.1-0.2,0.3-0.3,0.4c-0.1,0.1-0.2,0.2-0.3,0.3
	c-0.1,0.1-0.2,0.1-0.4,0.1c-0.2,0-0.6-0.1-1.4-0.6c0,0,0,0,0,0l-0.1-0.1c-0.3-0.2-0.5-0.3-0.8-0.5c-0.2-0.1-0.5-0.3-0.9-0.4
	c-0.7-0.2-1.6-0.2-2.3,0c-0.3,0.1-0.6,0.3-0.9,0.5c-0.2,0.2-0.5,0.4-0.7,0.7c-0.2,0.3-0.4,0.5-0.5,0.7c-0.1,0.2-0.2,0.4-0.3,0.6
	c-0.1,0.2-0.2,0.4-0.2,0.5l-0.2,0.7l2.4,1l0.3-0.8c0-0.1,0.1-0.2,0.2-0.3c0.1-0.1,0.2-0.3,0.3-0.4c0.1-0.1,0.2-0.2,0.4-0.3
	c0.2-0.1,0.5-0.2,0.8,0c0.2,0.1,0.3,0.1,0.4,0.2c0.1,0.1,0.3,0.2,0.5,0.3c0.3,0.2,0.6,0.4,0.8,0.5c0.2,0.1,0.5,0.3,0.9,0.4
	c0.8,0.2,1.6,0.3,2.3,0c0.3-0.1,0.6-0.3,0.9-0.5c0.2-0.2,0.4-0.4,0.7-0.7c0.2-0.3,0.4-0.5,0.5-0.7c0.1-0.2,0.2-0.4,0.3-0.6
	c0.1-0.2,0.2-0.4,0.2-0.5c0-0.1,0.1-0.2,0.1-0.2l0.2-0.5L241,132.7z"/>
<path fill="#A7CB6F" d="M241,141.2l-0.3,0.8c0,0.1-0.1,0.2-0.2,0.3c-0.1,0.1-0.2,0.3-0.3,0.4c-0.1,0.1-0.2,0.2-0.3,0.3
	c-0.1,0.1-0.2,0.1-0.4,0.1c-0.2,0-0.6-0.1-1.4-0.6c0,0,0,0,0,0l-0.1-0.1c-0.3-0.2-0.5-0.3-0.8-0.5c-0.2-0.1-0.5-0.3-0.9-0.4
	c-0.7-0.2-1.6-0.2-2.3,0c-0.3,0.1-0.6,0.3-0.9,0.5c-0.2,0.2-0.5,0.4-0.7,0.7c-0.2,0.3-0.4,0.5-0.5,0.7c-0.1,0.2-0.2,0.4-0.3,0.6
	c-0.1,0.2-0.2,0.4-0.2,0.5l-0.2,0.7l2.4,1l0.3-0.8c0-0.1,0.1-0.2,0.2-0.3c0.1-0.1,0.2-0.3,0.3-0.4c0.1-0.1,0.2-0.2,0.4-0.3
	c0.2-0.1,0.5-0.2,0.8,0c0.2,0.1,0.3,0.1,0.4,0.2c0.1,0.1,0.3,0.2,0.5,0.3c0.3,0.2,0.6,0.4,0.8,0.5c0.2,0.1,0.5,0.3,0.9,0.4
	c0.8,0.2,1.6,0.3,2.3,0c0.3-0.1,0.6-0.3,0.9-0.5c0.2-0.2,0.4-0.4,0.7-0.7c0.2-0.3,0.4-0.5,0.5-0.7c0.1-0.2,0.2-0.4,0.3-0.6
	c0.1-0.2,0.2-0.4,0.2-0.5c0-0.1,0.1-0.2,0.1-0.2l0.2-0.5L241,141.2z"/>
<path fill="#A7CB6F" d="M241,149.7l-0.3,0.8c0,0.1-0.1,0.2-0.2,0.3c-0.1,0.1-0.2,0.3-0.3,0.4c-0.1,0.1-0.2,0.2-0.3,0.3
	c-0.1,0.1-0.2,0.1-0.4,0.1c-0.2,0-0.6-0.1-1.4-0.6c0,0,0,0,0,0l-0.1-0.1c-0.3-0.2-0.5-0.3-0.8-0.5c-0.2-0.1-0.5-0.3-0.9-0.4
	c-0.7-0.2-1.6-0.2-2.3,0c-0.3,0.1-0.6,0.3-0.9,0.5c-0.2,0.2-0.5,0.4-0.7,0.7c-0.2,0.2-0.4,0.5-0.5,0.7c-0.1,0.2-0.2,0.4-0.3,0.6
	c-0.1,0.2-0.2,0.4-0.2,0.5l-0.2,0.7l2.4,1l0.3-0.8c0-0.1,0.1-0.2,0.2-0.3c0.1-0.1,0.2-0.3,0.3-0.4c0.1-0.1,0.2-0.2,0.4-0.3
	c0.2-0.1,0.5-0.2,0.8,0c0.2,0.1,0.3,0.1,0.4,0.2c0.1,0.1,0.3,0.2,0.5,0.3c0.3,0.2,0.6,0.4,0.8,0.5c0.2,0.1,0.5,0.3,0.9,0.4
	c0.8,0.2,1.6,0.3,2.3,0c0.3-0.1,0.6-0.3,0.9-0.5c0.2-0.2,0.4-0.4,0.7-0.7c0.2-0.3,0.4-0.5,0.5-0.7c0.1-0.2,0.2-0.4,0.3-0.6
	c0.1-0.2,0.2-0.4,0.2-0.5c0-0.1,0.1-0.2,0.1-0.2l0.2-0.5L241,149.7z"/>
</svg>
